<svg xmlns="http://www.w3.org/2000/svg" width="1316.932" height="579.939" viewBox="0 0 1316.932 579.939"><defs><style>.a{opacity:0.05;}.b{fill:#fff;}</style></defs><g class="a" transform="translate(-377.119 -225.608)"><path class="b" d="M567.768,538.317a188.888,188.888,0,0,1,163.686-94.481c53.305,0,96.518-42.223,96.518-94.306s-43.213-94.658-96.518-94.658c-104.364,0-188.967,84.6-188.967,188.964A188.077,188.077,0,0,0,567.768,538.317Z" transform="translate(253.362 44.835)"/><path class="b" d="M609.222,503.319a152.289,152.289,0,0,0-51.982-143.062l-.215-.18a76.174,76.174,0,0,1,98.071-116.586l.072.061a152.388,152.388,0,0,1-45.945,259.767Z" transform="translate(234.054 0)"/><path class="b" d="M477.613,354.631q44.605,0,70.755,20t26.152,63.064V559.207q0,11.285-4.363,17.175t-13.073,11.025q-12.3,7.187-32.555,12.562t-46.4,5.383q-48.206,0-74.6-18.97-26.412-18.965-26.4-54.864,0-33.838,22.047-51.014t62.042-21.277l72.805-7.179V437.691q0-25.634-15.383-37.429T477.1,388.47a130.47,130.47,0,0,0-40.506,6.153,224.138,224.138,0,0,0-33.839,13.843,48.383,48.383,0,0,1-7.437-8.2,17.07,17.07,0,0,1-3.335-10.255q0-7.171,3.591-11.792t11.28-8.716a126.4,126.4,0,0,1,31.791-11.025A185.946,185.946,0,0,1,477.613,354.631Zm.514,216.883q21.532,0,35.629-4.36t20.257-8.459V484.348l-63.579,6.667q-26.667,2.572-39.481,12.048-12.822,9.5-12.817,27.944,0,19.492,14.869,30T478.127,571.513Z" transform="translate(0 197.677)"/><path class="b" d="M507.527,655.3a46.681,46.681,0,0,1-11.278,1.282q-22.051,0-22.047-18.457V321.771a62.521,62.521,0,0,1,7.945-2.307,47.775,47.775,0,0,1,11.025-1.281q22.037,0,22.047,18.457V652.991A63.863,63.863,0,0,1,507.527,655.3Z" transform="translate(148.742 141.834)"/><path class="b" d="M545.281,655.3A46.678,46.678,0,0,1,534,656.579q-22.044,0-22.047-18.457V321.771a62.823,62.823,0,0,1,7.946-2.307,47.778,47.778,0,0,1,11.025-1.281q22.041,0,22.05,18.457V652.991A64.1,64.1,0,0,1,545.281,655.3Z" transform="translate(206.581 141.834)"/><path class="b" d="M693.324,388.984a86.946,86.946,0,0,0-32.3,5.895,69.765,69.765,0,0,0-25.635,17.434q-10.768,11.535-16.925,28.711t-6.148,39.225q0,44.1,22.044,67.422T693.324,571q21.537,0,35.891-5.9a139.178,139.178,0,0,0,25.635-13.585,29.251,29.251,0,0,1,9.232,7.69,17.883,17.883,0,0,1,3.589,11.281q0,7.186-5.639,13.329T746.39,594.586A109.917,109.917,0,0,1,722.8,602.02a145.57,145.57,0,0,1-29.479,2.819,151.6,151.6,0,0,1-49.221-7.69,106.292,106.292,0,0,1-38.969-23.073q-16.413-15.383-25.636-38.711t-9.227-55.116q0-31.271,9.741-54.608t26.149-39.222a106.147,106.147,0,0,1,38.711-23.843,140.3,140.3,0,0,1,47.426-7.945,145.427,145.427,0,0,1,29.482,2.82,89.184,89.184,0,0,1,23.33,7.946q9.732,5.131,15.122,11.536t5.383,13.073a17.08,17.08,0,0,1-3.586,10.769,24.12,24.12,0,0,1-9.232,7.179,141.793,141.793,0,0,0-24.609-13.332Q714.854,388.987,693.324,388.984Z" transform="translate(295.932 197.677)"/><path class="b" d="M756.262,354.631q44.605,0,70.758,20t26.145,63.064V559.207q0,11.285-4.357,17.175t-13.076,11.025q-12.3,7.187-32.558,12.562t-46.4,5.383q-48.2,0-74.6-18.97t-26.4-54.864q0-33.838,22.05-51.014t62.037-21.277l72.806-7.179V437.691q0-25.634-15.383-37.429T755.748,388.47a130.475,130.475,0,0,0-40.5,6.153A224.2,224.2,0,0,0,681.4,408.465a48.413,48.413,0,0,1-7.438-8.2,17.072,17.072,0,0,1-3.33-10.255q0-7.171,3.591-11.792T685.5,369.5a126.5,126.5,0,0,1,31.789-11.025A186.022,186.022,0,0,1,756.262,354.631Zm.511,216.883q21.535,0,35.635-4.36t20.252-8.459V484.348l-63.576,6.667q-26.663,2.572-39.48,12.048-12.826,9.5-12.816,27.944,0,19.492,14.867,30T756.773,571.513Z" transform="translate(426.92 197.677)"/><path class="b" d="M790.174,597.149a64.156,64.156,0,0,1-7.688,2.307,46.743,46.743,0,0,1-11.283,1.281q-22.048,0-22.044-18.456V408.465q0-11.789,4.357-18.714t14.613-13.587q13.328-8.709,36.146-15.124t51.531-6.409q41.008,0,41.018,20.508a28.278,28.278,0,0,1-1.537,9.485,23.933,23.933,0,0,1-4.1,7.436q-5.133-1.021-13.329-2.053a133.252,133.252,0,0,0-16.408-1.023q-23.595,0-41.53,4.869-17.957,4.881-29.742,11.536Z" transform="translate(570.007 197.677)"/><path class="b" d="M849.442,493.961q4.364,68.45,77.989,78.779,21.322,3,39.586-1.689t29.558-11.382q11.186,8.831,9.477,21.006-1,7.118-8.273,12.817t-18.9,9.255a118.88,118.88,0,0,1-26.528,4.558,152.982,152.982,0,0,1-31.654-1.34q-58.906-8.272-88.677-45.072t-21.151-98.238q4.064-28.942,15.616-50.358t28.74-35.054A101.573,101.573,0,0,1,894.4,358.151a121.135,121.135,0,0,1,46.369-2.031,114.916,114.916,0,0,1,41.075,13.537,97.559,97.559,0,0,1,30.221,26.248,101.473,101.473,0,0,1,17.2,36.07,109.746,109.746,0,0,1,1.985,42.993q-1.569,11.174-7.324,15.281t-15.038,3.844Zm86.183-104.908q-30.975-4.349-54.312,14.377t-29.99,58.695l142.338.317q1.375-28.277-13.094-48.7Q966.078,393.339,935.625,389.053Z" transform="translate(661.577 197.937)"/></g></svg>