<svg xmlns="http://www.w3.org/2000/svg" width="2827.559" height="1814.333" viewBox="0 0 2827.559 1814.333"><defs><style>.a{opacity:0.101;}.b{fill:#00b1ff;}.c{fill:#8dc73f;mix-blend-mode:multiply;isolation:isolate;}</style></defs><g class="a" transform="translate(-205.474 -147.878)"><path class="b" d="M633.871,1279.462c118.1-204.167,338.854-341.527,591.688-341.527,192.689,0,348.895-152.626,348.895-340.9s-156.206-342.167-348.895-342.167c-377.251,0-683.071,305.812-683.071,683.062A679.869,679.869,0,0,0,633.871,1279.462Z" transform="matrix(0.914, -0.407, 0.407, 0.914, -393.778, 555.428)"/><path class="c" d="M862.325,1360.7c38.048-211.525-37.209-436.545-217.815-584.741l-.9-.735c-134.9-110.689-152.266-307.1-38.791-438.688S919.641,188.012,1054.549,298.7l.3.248c269.805,221.378,304.532,614.2,77.582,877.375A635.9,635.9,0,0,1,862.325,1360.7Z" transform="translate(1348.276 881.778) rotate(-21)"/></g></svg>