<svg width="28" height="28" viewBox="0 0 28 28" fill="none" xmlns="http://www.w3.org/2000/svg">
<path d="M27.4233 7.26748C27.1004 6.06815 26.1547 5.12252 24.9554 4.79962C22.7643 4.19995 13.9999 4.19995 13.9999 4.19995C13.9999 4.19995 5.23556 4.19995 3.04447 4.77655C1.8682 5.09945 0.899502 6.06815 0.576604 7.26748C0 9.45858 0 14.0022 0 14.0022C0 14.0022 0 18.5689 0.576604 20.7369C0.899502 21.9363 1.84513 22.8819 3.04447 23.2048C5.25863 23.8045 13.9999 23.8045 13.9999 23.8045C13.9999 23.8045 22.7643 23.8045 24.9554 23.2279C26.1547 22.905 27.1004 21.9593 27.4233 20.76C27.9999 18.5689 27.9999 14.0253 27.9999 14.0253C27.9999 14.0253 28.0229 9.45858 27.4233 7.26748Z" fill="#000100"/>
<path d="M11.2092 18.1999L18.4974 14.0022L11.2092 9.80457V18.1999Z" fill="white"/>
</svg>
