<svg xmlns="http://www.w3.org/2000/svg" width="33.389" height="40.002" viewBox="0 0 33.389 40.002"><defs><style>.a{fill:#2870d1;}</style></defs><g transform="translate(233.575 387.55)"><path class="a" d="M-200.193-375.241c0,3.473-.019,6.945.006,10.418a10.245,10.245,0,0,1-2.2,6.538,33.557,33.557,0,0,1-13.9,10.617,1.322,1.322,0,0,1-1.162-.03,37.509,37.509,0,0,1-14.22-11.245,9.57,9.57,0,0,1-1.908-6.095q.014-10.877.01-21.755c0-.051,0-.1,0-.153.021-.68.068-.71.711-.456,1.281.508,2.554,1.039,3.846,1.519,4.018,1.491,7.793.774,11.373-1.355a1.351,1.351,0,0,1,1.582-.011c3.585,2.005,7.341,2.768,11.339,1.348,1.082-.384,2.154-.8,3.219-1.23,1.308-.527,1.3-.539,1.3.861Q-200.192-380.756-200.193-375.241Zm-3.172,2.1h0q0-4.556,0-9.113c0-.707-.03-.739-.68-.528a15.989,15.989,0,0,1-12.2-1,1.094,1.094,0,0,0-1.074-.013,15.49,15.49,0,0,1-12.394,1.023c-.48-.162-.689-.107-.688.469.015,5.948,0,11.9.021,17.843a5.967,5.967,0,0,0,1.351,3.752,34.428,34.428,0,0,0,11.714,9.555,1.107,1.107,0,0,0,1.075,0,29.9,29.9,0,0,0,11.5-9.281,6.756,6.756,0,0,0,1.381-4.208C-203.378-367.475-203.365-370.308-203.365-373.142Z" transform="translate(0 0)"/><path class="a" d="M-163.889-305.636c-.16.182-.3.359-.457.517q-1.973,1.981-3.953,3.956c-2.149,2.148-4.31,4.286-6.439,6.454-.424.431-.666.43-1.09,0q-3.109-3.174-6.286-6.282c-.453-.442-.418-.709.025-1.09a12.206,12.206,0,0,0,1.246-1.245c.342-.395.577-.338.919.013,1.356,1.388,2.758,2.732,4.1,4.134.432.451.672.4,1.084-.013,2.692-2.725,5.409-5.425,8.12-8.132.568-.567.571-.565,1.125-.009.433.434.865.868,1.293,1.308C-164.1-305.921-164.014-305.794-163.889-305.636Z" transform="translate(-43.298 -67.562)"/></g></svg>