<svg xmlns="http://www.w3.org/2000/svg" width="52.714" height="47.916" viewBox="0 0 52.714 47.916"><g transform="translate(0 -23.459)"><g transform="translate(3.089 28.133)"><path d="M39.369,68.5H31.544a1.544,1.544,0,1,0,0,3.089h7.825a1.544,1.544,0,1,0,0-3.089Z" transform="translate(-30 -68.5)"/></g><g transform="translate(3.089 40.488)"><path d="M39.369,188.5H31.544a1.544,1.544,0,1,0,0,3.089h7.825a1.544,1.544,0,1,0,0-3.089Z" transform="translate(-30 -188.5)"/></g><g transform="translate(0 34.31)"><path d="M9.369,128.5H1.544a1.544,1.544,0,0,0,0,3.089H9.369a1.544,1.544,0,0,0,0-3.089Z" transform="translate(0 -128.5)"/></g><g transform="translate(20.18 32.764)"><path d="M225.445,122.745h-9.369v-6.177a3.094,3.094,0,0,0-5.273-2.183l-12.354,12.354a3.088,3.088,0,0,0,0,4.368l7.082,7.082-8.627,8.627a3.088,3.088,0,0,0,4.368,4.368l10.81-10.81a3.088,3.088,0,0,0,0-4.368L205,128.923l4.9-4.9v1.81a3.089,3.089,0,0,0,3.089,3.089h12.458a3.089,3.089,0,0,0,0-6.177Z" transform="translate(-196 -113.477)"/></g><g transform="translate(15.546 25.817)"><path d="M164.295,46.525a3.09,3.09,0,0,0-3.9.386L151.9,55.4a3.088,3.088,0,1,0,4.368,4.368l6.7-6.7,2.258,1.627,3.017-3.017a6.142,6.142,0,0,1,1.751-1.2Z" transform="translate(-150.999 -46.006)"/></g><g transform="translate(1.647 49.79)"><path d="M34.8,281.637a6.122,6.122,0,0,1-1.58-2.787L16.9,295.162a3.088,3.088,0,1,0,4.368,4.368l15.709-15.709Z" transform="translate(-16 -278.85)"/></g><g transform="translate(37.173 23.5)"><g transform="translate(0)"><circle cx="4.5" cy="4.5" r="4.5" transform="translate(0.277 -0.041)"/></g></g></g></svg>