<svg xmlns="http://www.w3.org/2000/svg" width="63.708" height="59.964" viewBox="0 0 63.708 59.964"><g transform="translate(-3.432 -0.655)"><g transform="translate(3.432 0.655)"><path d="M19.758,21.521c1.936-.923,2.568-3.636,1.417-6.046s-3.658-3.636-5.594-2.713-2.568,3.636-1.415,6.054S17.824,22.447,19.758,21.521Z" transform="translate(13.845 10.815)"/><path d="M32.014,9.8c1.861,11.65-6.43,20.383-6.43,20.383S18.749,18.614,7.255,15.123c22.359,16.349,9.633,36.732,9.633,36.732H23.36S38.406,25.893,32.014,9.8Z" transform="translate(7.391 8.108)"/><path d="M14.386,12.474c-.125-.186-.252-.384-.38-.6a9.725,9.725,0,0,1-.862-1.97,10.233,10.233,0,0,1,1.274,1.73c.123.216.23.428.329.63a3.5,3.5,0,0,0-.271-2.309,3.727,3.727,0,0,0-2.154-1.48,3.728,3.728,0,0,0,.2,2.608A3.473,3.473,0,0,0,14.386,12.474Z" transform="translate(12.4 6.76)"/><path d="M20.622,15.375a3.487,3.487,0,0,0,2.134.916,3.717,3.717,0,0,0,2.358-1.128,3.712,3.712,0,0,0-2.358-1.126,3.487,3.487,0,0,0-2.134.916c.224-.016.458-.028.711-.028a10.1,10.1,0,0,1,2.142.234,9.868,9.868,0,0,1-2.142.236A6.216,6.216,0,0,1,20.622,15.375Z" transform="translate(21.008 12.428)"/><path d="M18.483,11.634A9.831,9.831,0,0,1,19.757,9.9a9.784,9.784,0,0,1-.864,1.974c-.125.214-.252.416-.382.6a3.469,3.469,0,0,0,1.861-1.389,3.744,3.744,0,0,0,.21-2.612,3.754,3.754,0,0,0-2.156,1.482,3.48,3.48,0,0,0-.273,2.309A6.809,6.809,0,0,1,18.483,11.634Z" transform="translate(18.411 6.762)"/><path d="M16.516,11.242a21.989,21.989,0,0,1,.527-4.752,21.957,21.957,0,0,1,.529,4.752c0,.555-.026,1.08-.067,1.577a7.729,7.729,0,0,0,2.041-4.748c0-2.9-2.5-5.247-2.5-5.247s-2.5,2.348-2.5,5.247a7.745,7.745,0,0,0,2.039,4.748C16.543,12.322,16.516,11.8,16.516,11.242Z" transform="translate(14.812 1.005)"/><path d="M8.876,13.67a7.733,7.733,0,0,0,5.132.606c-.448-.21-.919-.456-1.4-.731a21.925,21.925,0,0,1-3.852-2.83,21.942,21.942,0,0,1,4.379,1.918c.48.279.923.561,1.334.846a7.692,7.692,0,0,0-3.091-4.142c-2.507-1.451-5.794-.458-5.794-.458S6.367,12.222,8.876,13.67Z" transform="translate(5.693 6.834)"/><path d="M27.164,18.5a7.742,7.742,0,0,0-5.13-.608c.45.212.919.458,1.4.733a22.141,22.141,0,0,1,3.852,2.83A21.9,21.9,0,0,1,22.9,19.544c-.48-.281-.923-.563-1.332-.848a7.7,7.7,0,0,0,3.087,4.14c2.507,1.451,5.8.458,5.8.458S29.671,19.952,27.164,18.5Z" transform="translate(21.975 16.177)"/><path d="M14.471,18.7c-.412.281-.852.563-1.332.844a22.3,22.3,0,0,1-4.381,1.92,21.937,21.937,0,0,1,3.852-2.834c.482-.281.951-.517,1.4-.733a7.7,7.7,0,0,0-5.132.608C6.368,19.954,5.585,23.3,5.585,23.3s3.286.993,5.8-.454A7.717,7.717,0,0,0,14.471,18.7Z" transform="translate(5.689 16.177)"/><path d="M21.573,13.471c.41-.281.852-.563,1.336-.842a21.9,21.9,0,0,1,4.377-1.918,21.831,21.831,0,0,1-3.852,2.83c-.48.279-.951.521-1.395.731a7.677,7.677,0,0,0,5.125-.606c2.511-1.449,3.293-4.792,3.293-4.792s-3.284-.991-5.792.458A7.684,7.684,0,0,0,21.573,13.471Z" transform="translate(21.976 6.833)"/><path d="M14.273,12.841c-.375-.551-.757-1.145-1.13-1.791a29.364,29.364,0,0,1-2.574-5.87,29.333,29.333,0,0,1,3.8,5.168c.373.642.694,1.27.981,1.873a10.326,10.326,0,0,0-.809-6.876C12.6,1.981,8.114.931,8.114.931s-1.33,4.4.612,7.768A10.363,10.363,0,0,0,14.273,12.841Z" transform="translate(7.813 -0.923)"/><path d="M21.285,22.361c.375.551.761,1.143,1.132,1.787a29.525,29.525,0,0,1,2.574,5.874,29.587,29.587,0,0,1-3.8-5.166c-.371-.646-.694-1.274-.981-1.873a10.369,10.369,0,0,0,.812,6.872c1.944,3.363,6.424,4.417,6.424,4.417s1.336-4.409-.608-7.772A10.366,10.366,0,0,0,21.285,22.361Z" transform="translate(20.341 20.908)"/><path d="M11.281,17a29.345,29.345,0,0,1-6.371-.711,29.345,29.345,0,0,1,6.371-.711c.747,0,1.451.04,2.116.089a10.344,10.344,0,0,0-6.365-2.737C3.149,12.933,0,16.29,0,16.29s3.151,3.359,7.031,3.357a10.353,10.353,0,0,0,6.363-2.733C12.73,16.964,12.023,17,11.281,17Z" transform="translate(0 11.301)"/><path d="M31.288,12.935a10.33,10.33,0,0,0-6.363,2.733c.666-.05,1.373-.089,2.114-.087a29.4,29.4,0,0,1,6.371.709A29.307,29.307,0,0,1,27.043,17c-.745,0-1.451-.038-2.118-.087a10.359,10.359,0,0,0,6.363,2.733c3.884,0,7.029-3.353,7.029-3.353S35.168,12.931,31.288,12.935Z" transform="translate(25.391 11.306)"/><path d="M14.37,24.859a29.521,29.521,0,0,1-3.8,5.166,29.363,29.363,0,0,1,2.572-5.874c.375-.642.757-1.233,1.135-1.791A10.361,10.361,0,0,0,8.725,26.5c-1.944,3.363-.612,7.772-.612,7.772s4.484-1.05,6.426-4.413a10.335,10.335,0,0,0,.814-6.876C15.06,23.585,14.739,24.207,14.37,24.859Z" transform="translate(7.812 20.907)"/><path d="M21.193,10.346a29.39,29.39,0,0,1,3.8-5.164,29.277,29.277,0,0,1-2.574,5.87c-.371.64-.753,1.237-1.128,1.789A10.343,10.343,0,0,0,26.835,8.7c1.944-3.363.612-7.774.612-7.774s-4.479,1.052-6.424,4.415a10.311,10.311,0,0,0-.816,6.876C20.5,11.622,20.818,10.994,21.193,10.346Z" transform="translate(20.338 -0.927)"/></g></g></svg>