<svg xmlns="http://www.w3.org/2000/svg" width="32.559" height="55.35" viewBox="0 0 32.559 55.35"><g transform="translate(-105)"><path d="M161.047,4.884A4.889,4.889,0,0,0,156.163,0H139.884A4.889,4.889,0,0,0,135,4.884V6.512h26.047Z" transform="translate(-26.744)"/><path d="M105,232.791h32.559V210H105Zm16.605-18.884,2.6,1.954-2.93,3.907h6.512l-6.837,9.117-2.6-1.954,2.93-3.907h-6.512Z" transform="translate(0 -187.209)"/><path d="M131.72,93.256h-.673V90H111.512v3.256h-.673A5.845,5.845,0,0,0,105,99.095v.673h32.559v-.673A5.845,5.845,0,0,0,131.72,93.256Z" transform="translate(0 -80.232)"/><path d="M105,450.673a5.845,5.845,0,0,0,5.839,5.839H131.72a5.845,5.845,0,0,0,5.839-5.839V450H105Z" transform="translate(0 -401.161)"/></g></svg>