<svg xmlns="http://www.w3.org/2000/svg" width="52.547" height="51.161" viewBox="0 0 52.547 51.161"><g transform="translate(-2 -2.635)"><circle cx="7" cy="7" r="7" transform="translate(21.45 2.635)"/><path d="M7.379,51a4.379,4.379,0,0,0,0,8.758H35.4V51Z" transform="translate(-0.124 -5.962)"/><path d="M54.261,51H42v8.758H54.261a4.379,4.379,0,1,0,0-8.758Z" transform="translate(-4.968 -5.962)"/><path d="M44.914,31.261,42.2,23.65A7.006,7.006,0,0,0,35.6,19H20.95a7.006,7.006,0,0,0-6.6,4.65l-2.718,7.611L2,41.77l5.255,5.255,9.634-9.634,3.5-9.634V39.143l-3.407,6.132H39.563l-3.407-6.132V27.758l3.5,9.634,9.634,9.634,5.255-5.255Zm-16.64,2.477L25.8,31.261l-1.238-1.238a1.751,1.751,0,0,1,2.477-2.477l1.238,1.238,1.238-1.238a1.751,1.751,0,1,1,2.477,2.477L30.75,31.261Z" transform="translate(0 -1.987)"/></g></svg>